{
	"asset":{
		"generator":"Khronos glTF Blender I/O v3.5.30",
		"version":"2.0"
	},
	"extensionsUsed":[
		"KHR_materials_specular",
		"KHR_materials_ior"
	],
	"scene":0,
	"scenes":[
		{
			"name":"Scene",
			"nodes":[
				0
			]
		}
	],
	"nodes":[
		{
			"mesh":0,
			"name":"Untitled",
			"rotation":[
				0.7071068286895752,
				0,
				0,
				0.7071068286895752
			],
			"translation":[
				-2.0631773471832275,
				-1.9898760318756104,
				2.08685040473938
			]
		}
	],
	"materials":[
		{
			"doubleSided":true,
			"extensions":{
				"KHR_materials_specular":{
					"specularColorFactor":[
						0,
						0,
						0
					]
				},
				"KHR_materials_ior":{
					"ior":1.4500000476837158
				}
			},
			"name":"palette.001",
			"pbrMetallicRoughness":{
				"baseColorTexture":{
					"index":0
				},
				"metallicFactor":0
			}
		}
	],
	"meshes":[
		{
			"name":"Untitled.001",
			"primitives":[
				{
					"attributes":{
						"POSITION":0,
						"TEXCOORD_0":1,
						"NORMAL":2
					},
					"indices":3,
					"material":0
				}
			]
		}
	],
	"textures":[
		{
			"sampler":0,
			"source":0
		}
	],
	"images":[
		{
			"bufferView":4,
			"mimeType":"image/png",
			"name":"p_12"
		}
	],
	"accessors":[
		{
			"bufferView":0,
			"componentType":5126,
			"count":7908,
			"max":[
				6.5,
				0,
				-2
			],
			"min":[
				0,
				-6.5,
				-5.900000095367432
			],
			"type":"VEC3"
		},
		{
			"bufferView":1,
			"componentType":5126,
			"count":7908,
			"type":"VEC2"
		},
		{
			"bufferView":2,
			"componentType":5126,
			"count":7908,
			"type":"VEC3"
		},
		{
			"bufferView":3,
			"componentType":5123,
			"count":17406,
			"type":"SCALAR"
		}
	],
	"bufferViews":[
		{
			"buffer":0,
			"byteLength":94896,
			"byteOffset":0,
			"target":34962
		},
		{
			"buffer":0,
			"byteLength":63264,
			"byteOffset":94896,
			"target":34962
		},
		{
			"buffer":0,
			"byteLength":94896,
			"byteOffset":158160,
			"target":34962
		},
		{
			"buffer":0,
			"byteLength":34812,
			"byteOffset":253056,
			"target":34963
		},
		{
			"buffer":0,
			"byteLength":167,
			"byteOffset":287868
		}
	],
	"samplers":[
		{
			"magFilter":9729,
			"minFilter":9987
		}
	],
	"buffers":[
		{
			"byteLength":288036,
			"uri":"data:application/octet-stream;base64,"
		}
	]
}
