{
	"asset":{
		"generator":"Khronos glTF Blender I/O v3.5.30",
		"version":"2.0"
	},
	"extensionsUsed":[
		"KHR_materials_specular",
		"KHR_materials_ior"
	],
	"scene":0,
	"scenes":[
		{
			"name":"Scene",
			"nodes":[
				0
			]
		}
	],
	"nodes":[
		{
			"mesh":0,
			"name":"Untitled",
			"rotation":[
				0.7071068286895752,
				0,
				0,
				0.7071068286895752
			]
		}
	],
	"materials":[
		{
			"doubleSided":true,
			"extensions":{
				"KHR_materials_specular":{
					"specularColorFactor":[
						0,
						0,
						0
					]
				},
				"KHR_materials_ior":{
					"ior":1.4500000476837158
				}
			},
			"name":"palette.003",
			"pbrMetallicRoughness":{
				"baseColorTexture":{
					"index":0
				},
				"metallicFactor":0
			}
		}
	],
	"meshes":[
		{
			"name":"Untitled.003",
			"primitives":[
				{
					"attributes":{
						"POSITION":0,
						"TEXCOORD_0":1,
						"NORMAL":2
					},
					"indices":3,
					"material":0
				}
			]
		}
	],
	"textures":[
		{
			"sampler":0,
			"source":0
		}
	],
	"images":[
		{
			"bufferView":4,
			"mimeType":"image/png",
			"name":"3"
		}
	],
	"accessors":[
		{
			"bufferView":0,
			"componentType":5126,
			"count":400,
			"max":[
				0.800000011920929,
				0,
				-2
			],
			"min":[
				0,
				-0.30000001192092896,
				-3
			],
			"type":"VEC3"
		},
		{
			"bufferView":1,
			"componentType":5126,
			"count":400,
			"type":"VEC2"
		},
		{
			"bufferView":2,
			"componentType":5126,
			"count":400,
			"type":"VEC3"
		},
		{
			"bufferView":3,
			"componentType":5123,
			"count":708,
			"type":"SCALAR"
		}
	],
	"bufferViews":[
		{
			"buffer":0,
			"byteLength":4800,
			"byteOffset":0,
			"target":34962
		},
		{
			"buffer":0,
			"byteLength":3200,
			"byteOffset":4800,
			"target":34962
		},
		{
			"buffer":0,
			"byteLength":4800,
			"byteOffset":8000,
			"target":34962
		},
		{
			"buffer":0,
			"byteLength":1416,
			"byteOffset":12800,
			"target":34963
		},
		{
			"buffer":0,
			"byteLength":108,
			"byteOffset":14216
		}
	],
	"samplers":[
		{
			"magFilter":9729,
			"minFilter":9987
		}
	],
	"buffers":[
		{
			"byteLength":14324,
			"uri":"data:application/octet-stream;base64,"
		}
	]
}
